<svg xmlns="http://www.w3.org/2000/svg" width="900" height="500" viewBox="0 0 900 500">
<defs>
<linearGradient id="w" x1="0" x2="1">
<stop offset="0" stop-color="#e6c39b"/><stop offset=".5" stop-color="#fff8ef"/><stop offset="1" stop-color="#dec09a"/>
</linearGradient>
</defs>
<rect width="900" height="500" fill="url(#w)"/>
<path d="M-40 70 C130 10 270 120 455 60 C620 8 750 100 950 42" stroke="#c98f3c" stroke-opacity=".18" stroke-width="6" fill="none"/>
<path d="M-50 155 C180 110 320 210 510 145 C665 92 790 180 940 135" stroke="#8d6a3d" stroke-opacity=".13" stroke-width="5" fill="none"/>
<path d="M-60 250 C130 190 270 300 455 240 C620 188 750 280 950 222" stroke="#c98f3c" stroke-opacity=".18" stroke-width="6" fill="none"/>
<path d="M-50 350 C180 300 320 410 510 335 C665 292 790 380 940 335" stroke="#8d6a3d" stroke-opacity=".13" stroke-width="5" fill="none"/>
<circle cx="220" cy="240" r="42" fill="none" stroke="#8d6a3d" stroke-opacity=".12" stroke-width="8"/>
<circle cx="685" cy="160" r="56" fill="none" stroke="#8d6a3d" stroke-opacity=".10" stroke-width="10"/>
</svg>