<svg xmlns="http://www.w3.org/2000/svg" viewBox="0 0 400 400" role="img" aria-labelledby="ssTitle">
  <title id="ssTitle">Homy Organic Signature Spa Soak</title>
  <defs>
    <linearGradient id="ssBg" x1="0" y1="0" x2="0" y2="1">
      <stop offset="0" stop-color="#f6f2eb"/>
      <stop offset="1" stop-color="#ead9bd"/>
    </linearGradient>
    <linearGradient id="ssBag" x1="0" y1="0" x2="1" y2="1">
      <stop offset="0" stop-color="#ffffff"/>
      <stop offset="1" stop-color="#f2ece1"/>
    </linearGradient>
  </defs>

  <rect width="400" height="400" fill="url(#ssBg)"/>

  <path d="M120 150 C120 120 280 120 280 150 L296 330 C296 355 104 355 104 330 Z" fill="url(#ssBag)" stroke="#d8c7a5" stroke-width="2"/>

  <path d="M150 150 L160 110 L240 110 L250 150 Z" fill="#fbf6ec" stroke="#c9b183" stroke-width="2"/>
  <path d="M150 150 Q200 128 250 150" fill="none" stroke="#9c8768" stroke-width="4" stroke-linecap="round"/>
  <circle cx="150" cy="128" r="9" fill="none" stroke="#9c8768" stroke-width="4"/>

  <g opacity=".85">
    <circle cx="150" cy="168" r="6" fill="#c98f3c"/>
    <circle cx="168" cy="160" r="5" fill="#e6a5a5"/>
    <circle cx="188" cy="170" r="6" fill="#8a9e6f"/>
    <circle cx="210" cy="158" r="5" fill="#c98f3c"/>
    <circle cx="230" cy="168" r="6" fill="#b96b6b"/>
    <circle cx="250" cy="160" r="5" fill="#8a9e6f"/>
  </g>

  <circle cx="200" cy="255" r="58" fill="#c9974f"/>
  <circle cx="200" cy="255" r="52" fill="none" stroke="#fbf6ec" stroke-width="2"/>
  <text x="200" y="245" text-anchor="middle" font-family="'Montserrat', Arial, Helvetica, sans-serif" font-size="22" font-weight="700" fill="#221d18">Homy</text>
  <text x="200" y="270" text-anchor="middle" font-family="'Montserrat', Arial, Helvetica, sans-serif" font-size="24" font-weight="800" fill="#221d18">Organic</text>
  <text x="200" y="286" text-anchor="middle" font-family="Arial, Helvetica, sans-serif" font-size="8" font-weight="700" letter-spacing="1.5" fill="#3f342a">PURE - NATURAL - PREMIUM</text>

  <text x="200" y="380" text-anchor="middle" font-family="'Montserrat', Arial, Helvetica, sans-serif" font-size="13" font-weight="600" fill="#8a7a63">Signature Spa Soak — placeholder image</text>
</svg>
