<svg xmlns="http://www.w3.org/2000/svg" viewBox="0 0 400 600" role="img" aria-labelledby="ssTitle ssDesc">
  <title id="ssTitle">Homy Organic Signature Spa Soak</title>
  <desc id="ssDesc">Sheer organza sachet tied with jute string, filled with dried florals and pink Himalayan bath salt, with a round Homy Organic kraft label.</desc>
  <defs>
    <linearGradient id="ssRoom" x1="0" y1="0" x2="0" y2="1">
      <stop offset="0" stop-color="#fbf3e6"/>
      <stop offset="1" stop-color="#f0dcb8"/>
    </linearGradient>
    <linearGradient id="ssBagFill" x1="0" y1="0" x2="1" y2="1">
      <stop offset="0" stop-color="#ffffff"/>
      <stop offset="1" stop-color="#f4efe4"/>
    </linearGradient>
    <linearGradient id="ssLabel" x1="0" y1="0" x2="1" y2="1">
      <stop offset="0" stop-color="#d5a25e"/>
      <stop offset="1" stop-color="#b9853a"/>
    </linearGradient>
    <clipPath id="bagClip">
      <path d="M142 178 C100 222 90 300 96 362 C101 428 112 478 132 508 C152 534 248 534 268 508 C288 478 299 428 304 362 C310 300 300 222 258 178 C238 200 162 200 142 178 Z"/>
    </clipPath>
  </defs>

  <rect width="400" height="600" fill="url(#ssRoom)"/>
  <ellipse cx="200" cy="562" rx="130" ry="16" fill="#000" opacity=".1"/>

  <!-- sheer organza frill -->
  <g opacity=".55" fill="#fffdf8" stroke="#e7d9bd" stroke-width="1.5">
    <path d="M200 182 C170 150 150 100 148 58 C168 95 188 140 200 182 Z" transform="rotate(-18 200 182)"/>
    <path d="M200 182 C185 145 178 95 182 52 C195 92 200 140 200 182 Z" transform="rotate(-6 200 182)"/>
    <path d="M200 182 C200 140 205 92 218 52 C222 95 215 145 200 182 Z" transform="rotate(6 200 182)"/>
    <path d="M200 182 C232 150 252 100 254 58 C234 95 214 140 200 182 Z" transform="rotate(18 200 182)"/>
    <path d="M200 182 C215 138 245 108 270 96 C255 128 228 158 200 182 Z" transform="rotate(30 200 182)"/>
    <path d="M200 182 C185 138 155 108 130 96 C145 128 172 158 200 182 Z" transform="rotate(-30 200 182)"/>
  </g>

  <!-- bag body -->
  <path d="M142 178 C100 222 90 300 96 362 C101 428 112 478 132 508 C152 534 248 534 268 508 C288 478 299 428 304 362 C310 300 300 222 258 178 C238 200 162 200 142 178 Z"
    fill="url(#ssBagFill)" stroke="#ddccab" stroke-width="2"/>

  <!-- contents: dried florals near the top -->
  <g opacity=".92">
    <circle cx="165" cy="205" r="7" fill="#d98a2e"/>
    <circle cx="180" cy="196" r="6" fill="#e0a94a"/>
    <circle cx="196" cy="208" r="7" fill="#8a9e5f"/>
    <circle cx="212" cy="198" r="6" fill="#c96b6b"/>
    <circle cx="228" cy="210" r="7" fill="#7c8f52"/>
    <circle cx="243" cy="200" r="6" fill="#d98a2e"/>
    <circle cx="175" cy="222" r="6" fill="#b45a7a"/>
    <circle cx="220" cy="224" r="6" fill="#e0a94a"/>
    <circle cx="200" cy="215" r="7" fill="#8a9e5f"/>
    <circle cx="155" cy="218" r="5" fill="#c96b6b"/>
    <circle cx="250" cy="218" r="5" fill="#7c8f52"/>
  </g>

  <!-- pink himalayan salt fill -->
  <g clip-path="url(#bagClip)">
    <g fill="#f4c9b8">
      <circle cx="150" cy="255" r="5"/><circle cx="168" cy="248" r="4"/><circle cx="186" cy="258" r="5"/>
      <circle cx="205" cy="246" r="4"/><circle cx="223" cy="257" r="5"/><circle cx="241" cy="248" r="4"/>
      <circle cx="258" cy="258" r="5"/><circle cx="140" cy="272" r="4"/><circle cx="160" cy="278" r="5"/>
      <circle cx="180" cy="270" r="4"/><circle cx="200" cy="280" r="5"/><circle cx="220" cy="270" r="4"/>
      <circle cx="240" cy="278" r="5"/><circle cx="260" cy="270" r="4"/><circle cx="272" cy="285" r="4"/>
      <circle cx="128" cy="290" r="4"/><circle cx="150" cy="300" r="5"/><circle cx="172" cy="292" r="4"/>
      <circle cx="194" cy="302" r="5"/><circle cx="216" cy="292" r="4"/><circle cx="238" cy="302" r="5"/>
      <circle cx="260" cy="292" r="4"/><circle cx="280" cy="300" r="4"/><circle cx="118" cy="312" r="4"/>
      <circle cx="140" cy="322" r="5"/><circle cx="162" cy="314" r="4"/><circle cx="184" cy="324" r="5"/>
      <circle cx="206" cy="314" r="4"/><circle cx="228" cy="324" r="5"/><circle cx="250" cy="314" r="4"/>
      <circle cx="272" cy="322" r="4"/><circle cx="288" cy="312" r="4"/>
    </g>
    <g fill="#fbfaf6">
      <circle cx="110" cy="340" r="5"/><circle cx="132" cy="348" r="4"/><circle cx="154" cy="340" r="5"/>
      <circle cx="176" cy="350" r="4"/><circle cx="198" cy="340" r="5"/><circle cx="220" cy="350" r="4"/>
      <circle cx="242" cy="340" r="5"/><circle cx="264" cy="350" r="4"/><circle cx="286" cy="340" r="4"/>
      <circle cx="102" cy="365" r="5"/><circle cx="124" cy="373" r="4"/><circle cx="146" cy="365" r="5"/>
      <circle cx="168" cy="375" r="4"/><circle cx="190" cy="365" r="5"/><circle cx="212" cy="375" r="4"/>
      <circle cx="234" cy="365" r="5"/><circle cx="256" cy="375" r="4"/><circle cx="278" cy="365" r="5"/>
      <circle cx="296" cy="374" r="4"/><circle cx="108" cy="392" r="4"/><circle cx="130" cy="400" r="5"/>
      <circle cx="152" cy="392" r="4"/><circle cx="174" cy="402" r="5"/><circle cx="196" cy="392" r="4"/>
      <circle cx="218" cy="402" r="5"/><circle cx="240" cy="392" r="4"/><circle cx="262" cy="402" r="5"/>
      <circle cx="284" cy="392" r="4"/><circle cx="115" cy="418" r="5"/><circle cx="140" cy="426" r="4"/>
      <circle cx="165" cy="418" r="5"/><circle cx="190" cy="428" r="4"/><circle cx="215" cy="418" r="5"/>
      <circle cx="240" cy="428" r="4"/><circle cx="265" cy="418" r="5"/><circle cx="285" cy="426" r="4"/>
      <circle cx="120" cy="446" r="4"/><circle cx="145" cy="454" r="5"/><circle cx="170" cy="446" r="4"/>
      <circle cx="195" cy="456" r="5"/><circle cx="220" cy="446" r="4"/><circle cx="245" cy="456" r="5"/>
      <circle cx="270" cy="446" r="4"/><circle cx="130" cy="474" r="5"/><circle cx="155" cy="482" r="4"/>
      <circle cx="180" cy="474" r="5"/><circle cx="205" cy="484" r="4"/><circle cx="230" cy="474" r="5"/>
      <circle cx="255" cy="482" r="4"/><circle cx="150" cy="500" r="5"/><circle cx="175" cy="508" r="4"/>
      <circle cx="200" cy="500" r="5"/><circle cx="225" cy="508" r="4"/><circle cx="250" cy="500" r="5"/>
    </g>
  </g>

  <!-- jute tie and bow -->
  <path d="M150 178 Q200 158 250 178" fill="none" stroke="#9c7c4e" stroke-width="5" stroke-linecap="round"/>
  <path d="M172 178 C150 168 128 176 118 194 C130 200 150 196 165 184" fill="none" stroke="#9c7c4e" stroke-width="5" stroke-linecap="round"/>
  <path d="M228 178 C250 168 272 176 282 194 C270 200 250 196 235 184" fill="none" stroke="#9c7c4e" stroke-width="5" stroke-linecap="round"/>
  <circle cx="200" cy="180" r="6" fill="#8a6c40"/>
  <path d="M188 186 L178 214" fill="none" stroke="#9c7c4e" stroke-width="4" stroke-linecap="round"/>
  <path d="M212 186 L222 210" fill="none" stroke="#9c7c4e" stroke-width="4" stroke-linecap="round"/>

  <!-- kraft label -->
  <circle cx="200" cy="430" r="92" fill="url(#ssLabel)" stroke="#fbf3e6" stroke-width="3"/>
  <circle cx="200" cy="430" r="82" fill="none" stroke="#fbf3e6" stroke-width="1.5" opacity=".7"/>
  <path d="M156 402 L200 372 L244 402" fill="none" stroke="#221d18" stroke-width="4" stroke-linecap="round" stroke-linejoin="round"/>
  <text x="200" y="420" text-anchor="middle" font-family="'Montserrat', Arial, Helvetica, sans-serif" font-size="26" font-weight="600" fill="#221d18">Homy</text>
  <text x="200" y="452" text-anchor="middle" font-family="'Montserrat', Arial, Helvetica, sans-serif" font-size="30" font-weight="800" fill="#221d18">Organic</text>
  <g transform="translate(178 436)">
    <circle cx="8" cy="8" r="8" fill="#4f7a5b"/>
    <path d="M8 13 C8 9 8 6 12 3" fill="none" stroke="#eaf3ec" stroke-width="1.6" stroke-linecap="round"/>
  </g>
  <text x="200" y="478" text-anchor="middle" font-family="Arial, Helvetica, sans-serif" font-size="10" font-weight="700" letter-spacing="1.8" fill="#3f342a">PURE - NATURAL - PREMIUM</text>
</svg>
