<svg xmlns="http://www.w3.org/2000/svg" width="600" height="520" viewBox="0 0 600 520">
  <defs>
    <linearGradient id="bg" x1="0" x2="1" y1="0" y2="1">
      <stop offset="0" stop-color="#fff8ef"/>
      <stop offset=".55" stop-color="#ffe5ec"/>
      <stop offset="1" stop-color="#ffc2d1"/>
    </linearGradient>
    <linearGradient id="g" x1="0" x2="1" y1="0" y2="1">
      <stop offset="0" stop-color="#ffffff"/>
      <stop offset=".45" stop-color="#ffe5ec"/>
      <stop offset="1" stop-color="#ffc2d1"/>
    </linearGradient>
    <filter id="s" x="-20%" y="-20%" width="140%" height="140%">
      <feDropShadow dx="0" dy="16" stdDeviation="18" flood-color="#15120f" flood-opacity=".18"/>
    </filter>
  </defs>
  <rect width="600" height="520" rx="42" fill="url(#bg)"/>
  <circle cx="93" cy="78" r="48" fill="#fff" opacity=".42"/>
  <circle cx="498" cy="108" r="74" fill="#fff" opacity=".28"/>
  <circle cx="512" cy="406" r="48" fill="#fff" opacity=".33"/>
  <path d="M92 372 C168 322 230 416 308 356 C384 298 431 328 508 266" fill="none" stroke="#c98f3c" stroke-width="8" stroke-linecap="round" opacity=".25"/>
  <g filter="url(#s)">
    
        <ellipse cx="300" cy="355" rx="96" ry="20" fill="#000" opacity=".08"/>
        <rect x="205" y="178" width="190" height="170" rx="38" fill="url(#g)" stroke="#d1849e" stroke-width="4"/>
        <rect x="232" y="145" width="136" height="45" rx="16" fill="#d1849e" opacity=".88"/>
        <rect x="220" y="240" width="160" height="60" rx="18" fill="#fff" opacity=".72"/>
        
  </g>
  <text x="300" y="260" text-anchor="middle" font-family="Georgia, serif" font-size="21" fill="#15120f" font-weight="700">Pink Clay</text>
  <text x="300" y="287" text-anchor="middle" font-family="Arial, sans-serif" font-size="13" fill="#68605a">Skin Care</text>
  <g opacity=".85">
    <path d="M137 180 C120 162 123 133 143 120 C164 142 164 169 137 180Z" fill="#0b8f61"/>
    <path d="M452 336 C438 317 445 292 468 284 C484 308 480 331 452 336Z" fill="#0b8f61"/>
    <circle cx="162" cy="391" r="7" fill="#f5abc5"/>
    <circle cx="434" cy="183" r="6" fill="#c98f3c"/>
  </g>
</svg>